<svg width="272" height="44" viewBox="0 0 272 44" fill="none" xmlns="http://www.w3.org/2000/svg">
<path d="M146.007 36.201C141.819 36.201 138.563 35.0911 136.239 32.8712C133.931 30.6364 132.776 27.4619 132.776 23.3477C132.776 19.1002 133.849 15.8443 135.995 13.58C138.141 11.3009 141.205 10.1613 145.186 10.1613C148.974 10.1613 151.897 11.1529 153.954 13.136C156.026 15.1043 157.062 17.9458 157.062 21.6605V25.5232H141.545C141.604 26.9292 142.115 28.0317 143.077 28.8309C144.053 29.6301 145.378 30.0296 147.05 30.0296C148.575 30.0296 149.973 29.8891 151.246 29.6079C152.534 29.3119 153.925 28.8161 155.419 28.1205V34.3585C154.058 35.0541 152.652 35.5351 151.202 35.8015C149.751 36.0679 148.02 36.201 146.007 36.201ZM145.496 16.0663C144.475 16.0663 143.617 16.3919 142.921 17.0431C142.24 17.6795 141.841 18.6858 141.722 20.0622H149.181C149.152 18.8486 148.804 17.8792 148.138 17.1541C147.487 16.4289 146.606 16.0663 145.496 16.0663Z" fill="#ffffffff"/>
<path d="M131.854 32.7815L123.834 36.1032L110.616 4.19049L118.635 0.868828L131.854 32.7815Z" fill="#ffffffff"/>
<path fill-rule="evenodd" clip-rule="evenodd" d="M112.334 10.6053V15.9775L102.367 29.1195H112.822V35.7571H75.7196V30.8066L86.1311 17.2429H76.319V10.6053H112.334ZM86.0867 29.1195L95.0944 17.2429H102.411L93.2945 29.1195H86.0867Z" fill="#ffffffff"/>
<path d="M71.5683 35.7571H62.8884V10.6053H71.5683V35.7571ZM62.6664 4.3451C62.6664 3.04274 63.029 2.07337 63.7542 1.43699C64.4794 0.800612 65.6485 0.482422 67.2617 0.482422C68.8748 0.482422 70.0514 0.808011 70.7914 1.45919C71.5313 2.11037 71.9013 3.07234 71.9013 4.3451C71.9013 6.89061 70.3548 8.16337 67.2617 8.16337C64.1982 8.16337 62.6664 6.89061 62.6664 4.3451Z" fill="#ffffffff"/>
<path d="M52.5746 35.7571L51.4869 32.627H50.9763C50.2511 33.7813 49.2373 34.6693 47.935 35.2909C46.6474 35.8977 45.1305 36.2011 43.3841 36.2011C40.6166 36.2011 38.4633 35.4019 36.9241 33.8035C35.385 32.1904 34.6154 29.9187 34.6154 26.9884V10.6053H43.2953V24.3466C43.2953 25.9894 43.5247 27.2326 43.9835 28.0761C44.4571 28.9197 45.2267 29.3415 46.2922 29.3415C47.787 29.3415 48.8526 28.7569 49.4889 27.5877C50.1253 26.4038 50.4435 24.4132 50.4435 21.6161V10.6053H59.1234V35.7571H52.5746Z" fill="#ffffffff"/>
<path d="M31.583 19.485C31.583 26.8404 29.2447 31.7982 24.568 34.3585L32.4932 43.4824H21.5711L15.8437 36.2677L15.8215 36.2455V36.2233L15.7993 36.2011C10.7083 36.2011 6.8012 34.7729 4.07809 31.9166C1.36978 29.0603 0.015625 24.9016 0.015625 19.4406C0.015625 14.0388 1.36238 9.91711 4.05589 7.07561C6.76421 4.2193 10.6935 2.79115 15.8437 2.79115C21.0087 2.79115 24.9232 4.2045 27.5871 7.03121C30.251 9.85792 31.583 14.0092 31.583 19.485ZM9.25052 19.485C9.25052 25.76 11.4335 28.8975 15.7993 28.8975C18.0192 28.8975 19.662 28.1353 20.7276 26.611C21.8079 25.0866 22.3481 22.7113 22.3481 19.485C22.3481 16.2439 21.8005 13.8538 20.7054 12.3146C19.625 10.7607 18.0044 9.98371 15.8437 9.98371C11.4483 9.98371 9.25052 13.1508 9.25052 19.485Z" fill="#ffffffff"/>
<path d="M267.27 35.3195L265.959 31.9438H265.782C264.642 33.38 263.465 34.3793 262.251 34.9419C261.051 35.4897 259.482 35.7636 257.543 35.7636C255.159 35.7636 253.279 35.0826 251.902 33.7205C250.54 32.3584 249.859 30.4189 249.859 27.902C249.859 25.2666 250.776 23.3271 252.612 22.0834C254.463 20.825 257.246 20.1291 260.963 19.9959L265.271 19.8626V18.7744C265.271 16.2575 263.983 14.999 261.407 14.999C259.423 14.999 257.091 15.5987 254.411 16.7979L252.168 12.223C255.026 10.7277 258.194 9.98 261.673 9.98C265.004 9.98 267.558 10.7055 269.335 12.1564C271.112 13.6073 272 15.8133 272 18.7744V35.3195H267.27ZM265.271 23.8157L262.65 23.9045C260.681 23.9637 259.216 24.319 258.253 24.9705C257.291 25.6219 256.81 26.6139 256.81 27.9464C256.81 29.8563 257.905 30.8112 260.096 30.8112C261.666 30.8112 262.917 30.3597 263.85 29.4565C264.797 28.5534 265.271 27.3542 265.271 25.8588V23.8157Z" fill="#ffffffff"/>
<path d="M248.706 10.46C249.624 10.46 250.387 10.5266 250.994 10.6599L250.483 17.0114C249.935 16.8633 249.269 16.7893 248.484 16.7893C246.323 16.7893 244.635 17.3445 243.421 18.4549C242.221 19.5653 241.622 21.1199 241.622 23.1186V35.7551H234.848V10.9264H239.978L240.978 15.1015H241.311C242.081 13.7098 243.117 12.592 244.42 11.7481C245.738 10.8894 247.166 10.46 248.706 10.46Z" fill="#ffffffff"/>
<path d="M227.543 30.3618C228.728 30.3618 230.149 30.1027 231.807 29.5845V34.6258C230.119 35.3808 228.047 35.7584 225.589 35.7584C222.879 35.7584 220.903 35.0773 219.659 33.7152C218.43 32.3383 217.816 30.2804 217.816 27.5414V15.5712H214.574V12.7063L218.305 10.4411L220.259 5.2H224.589V10.4855H231.541V15.5712H224.589V27.5414C224.589 28.5037 224.856 29.2144 225.389 29.6734C225.937 30.1323 226.655 30.3618 227.543 30.3618Z" fill="#ffffffff"/>
<path d="M217.764 32.4427L209.744 35.7644L196.526 3.85166L204.545 0.53L217.764 32.4427Z" fill="#ffffffff"/>
<path d="M196.526 0.53V23.0182C196.526 25.5856 195.948 27.836 194.791 29.7695C193.65 31.7029 191.994 33.1847 189.823 34.2148C187.651 35.2449 185.084 35.76 182.121 35.76C177.651 35.76 174.181 34.6189 171.708 32.3368C169.236 30.0389 168 26.901 168 22.9232V0.53H175.346V21.8059C175.346 24.4842 175.884 26.4493 176.962 27.7013C178.04 28.9533 179.823 29.5793 182.311 29.5793C184.72 29.5793 186.463 28.9533 187.541 27.7013C188.634 26.4335 189.181 24.4525 189.181 21.7583V0.53H196.526Z" fill="#ffffffff"/>
</svg>
